<svg width="24" height="24" viewBox="0 0 24 24" fill="none"
     xmlns="http://www.w3.org/2000/svg">
  <path d="M3 7c0-.83.67-1.5 1.5-1.5H9l1.2 1.6c.37.49.95.78 1.57.8H19.5c.83 0 1.5.67 1.5 1.5v1H5.2c-.55 0-1.05.31-1.3.8L3 14.9V7Z"
        stroke="#0A2342" stroke-width="1.8" stroke-linejoin="round"/>
  <path d="M4.2 11h16.1c.74 0 1.3.74 1.05 1.45l-1.95 5.5A1.5 1.5 0 0 1 18 19.5H5.5a1.5 1.5 0 0 1-1.41-.95L2.9 13.5A1.5 1.5 0 0 1 4.2 11Z"
        stroke="#0A2342" stroke-width="1.8" stroke-linejoin="round"/>
</svg>
