<svg width="780" height="160" viewBox="0 0 780 160" xmlns="http://www.w3.org/2000/svg">
  <style>
    .text { font-family: 'Arial', sans-serif; font-weight: 700; fill: #000; }
  </style>

  <!-- "LinkNe" text -->
  <text x="0" y="115" font-size="120" class="text">LinkNe</text>

  <!-- Chain link icon (SVG vector) -->
  <g transform="translate(520, 25)" fill="#000">
    <path d="M52.6,9.3c-5.8-5.8-15.3-5.8-21.1,0L15.8,25c-5.8,5.8-5.8,15.3,0,21.1
             c1.9,1.9,4.2,3.2,6.6,3.8l6.8-6.8c-1.4-0.4-2.8-1.1-3.9-2.2c-2.9-2.9-2.9-7.7,0-10.6l15.8-15.8
             c2.9-2.9,7.7-2.9,10.6,0c2.9,2.9,2.9,7.7,0,10.6l-6.9,6.9l6.8,6.8l6.9-6.9C58.4,24.6,58.4,15.1,52.6,9.3z"/>
    <path d="M31.7,44.7c5.8,5.8,15.3,5.8,21.1,0l15.8-15.8c5.8-5.8,5.8-15.3,0-21.1
             c-1.9-1.9-4.2-3.2-6.6-3.8l-6.8,6.8c1.4,0.4,2.8,1.1,3.9,2.2c2.9,2.9,2.9,7.7,0,10.6L43.4,39.4
             c-2.9,2.9-7.7,2.9-10.6,0c-2.9-2.9-2.9-7.7,0-10.6l6.9-6.9l-6.8-6.8l-6.9,6.9C25.9,29.4,25.9,38.9,31.7,44.7z"/>
  </g>

  <!-- "t" letter -->
  <text x="690" y="115" font-size="120" class="text">t</text>
</svg>
